<?xml version="1.0" encoding="UTF-8" standalone="no"?>
<!-- Created with Inkscape (http://www.inkscape.org/) -->

<svg
   xmlns:dc="http://purl.org/dc/elements/1.1/"
   xmlns:cc="http://creativecommons.org/ns#"
   xmlns:rdf="http://www.w3.org/1999/02/22-rdf-syntax-ns#"
   xmlns:svg="http://www.w3.org/2000/svg"
   xmlns="http://www.w3.org/2000/svg"
   xmlns:sodipodi="http://sodipodi.sourceforge.net/DTD/sodipodi-0.dtd"
   xmlns:inkscape="http://www.inkscape.org/namespaces/inkscape"
   width="300"
   height="200"
   id="svg3050"
   version="1.1"
   inkscape:version="0.48.4 r9939"
   sodipodi:docname="New document 2">
  <defs
     id="defs3052" />
  <sodipodi:namedview
     id="base"
     pagecolor="#ffffff"
     bordercolor="#666666"
     borderopacity="1.0"
     inkscape:pageopacity="0.0"
     inkscape:pageshadow="2"
     inkscape:zoom="0.35"
     inkscape:cx="-132.14286"
     inkscape:cy="520"
     inkscape:document-units="px"
     inkscape:current-layer="layer1"
     showgrid="false"
     inkscape:window-width="1600"
     inkscape:window-height="841"
     inkscape:window-x="0"
     inkscape:window-y="27"
     inkscape:window-maximized="1" />
  <metadata
     id="metadata3055">
    <rdf:RDF>
      <cc:Work
         rdf:about="">
        <dc:format>image/svg+xml</dc:format>
        <dc:type
           rdf:resource="http://purl.org/dc/dcmitype/StillImage" />
        <dc:title></dc:title>
      </cc:Work>
    </rdf:RDF>
  </metadata>
  <g
     inkscape:label="Layer 1"
     inkscape:groupmode="layer"
     id="layer1"
     transform="translate(0,-852.36218)">
    <path
       style="fill:none;stroke:#000000;stroke-width:4;stroke-opacity:0.21176471"
       d="m 81.944326,878.29135 c -5.9118,0.11456 -11.90629,1.13043 -17.8125,3.09375 -22.67193,7.5365 -37.86118,27.25261 -40.6875,49.46875 l -10.5,60.46875 c -1.84637,6.77025 -1.78586,14.154 0.59375,21.3125 6.4234,19.3234 27.3016,29.7672 46.625,23.3438 6.13557,-2.0396 11.37746,-5.528 15.46875,-9.9688 l 0.0312,0 41.343764,-37.96875 c 2.19436,-1.49856 4.26814,-3.15419 6.21875,-4.90625 l 56.40625,0 c 1.95061,1.75206 4.02439,3.40769 6.21875,4.90625 l 41.34375,37.96875 c 0,0.01 0.027,0 0.031,0 4.0913,4.4408 9.3332,7.9292 15.4688,9.9688 19.3234,6.4234 40.2016,-4.0204 46.625,-23.3438 2.3796,-7.1585 2.4401,-14.54225 0.5937,-21.3125 l -10.5,-60.5625 c -2.8566,-22.17843 -18.047,-41.84896 -40.6875,-49.375 -22.3592,-7.43257 -45.9859,-0.99958 -61.5625,14.625 l -51.5,0 C 114.20122,884.51556 98.410586,877.97223 81.944126,878.29135 z"
       id="path3025"
       inkscape:connector-curvature="0" />
    <path
       style="fill:none;stroke:#000000;stroke-width:3;stroke-opacity:0.21176471"
       d="m 73.936536,917.01884 0,12.78125 -12.8125,0 0,12.78125 12.8125,0 0,12.78125 12.75,0 0,-12.78125 12.78125,0 0,-12.78125 -12.78125,0 0,-12.78125 -12.75,0 z"
       id="path3027"
       inkscape:connector-curvature="0" />
    <path
       sodipodi:type="arc"
       style="fill:none;stroke:#000000;stroke-width:3;stroke-linecap:round;stroke-linejoin:round;stroke-miterlimit:4;stroke-opacity:0.21176471;stroke-dasharray:none;stroke-dashoffset:0"
       id="path3029"
       sodipodi:cx="594"
       sodipodi:cy="127.86218"
       sodipodi:rx="10.5"
       sodipodi:ry="10.5"
       d="m 604.5,127.86218 c 0,5.79899 -4.70101,10.5 -10.5,10.5 -5.79899,0 -10.5,-4.70101 -10.5,-10.5 0,-5.79899 4.70101,-10.5 10.5,-10.5 5.79899,0 10.5,4.70101 10.5,10.5 z"
       transform="translate(-403.64495,807.63956)" />
    <path
       transform="translate(-373.64495,807.63956)"
       d="m 604.5,127.86218 c 0,5.79899 -4.70101,10.5 -10.5,10.5 -5.79899,0 -10.5,-4.70101 -10.5,-10.5 0,-5.79899 4.70101,-10.5 10.5,-10.5 5.79899,0 10.5,4.70101 10.5,10.5 z"
       sodipodi:ry="10.5"
       sodipodi:rx="10.5"
       sodipodi:cy="127.86218"
       sodipodi:cx="594"
       id="path3031"
       style="fill:none;stroke:#000000;stroke-width:3;stroke-linecap:round;stroke-linejoin:round;stroke-miterlimit:4;stroke-opacity:0.21176471;stroke-dasharray:none;stroke-dashoffset:0"
       sodipodi:type="arc" />
    <path
       sodipodi:type="arc"
       style="fill:none;stroke:#000000;stroke-width:3;stroke-linecap:round;stroke-linejoin:round;stroke-miterlimit:4;stroke-opacity:0.21176471;stroke-dasharray:none;stroke-dashoffset:0"
       id="path3033"
       sodipodi:cx="594"
       sodipodi:cy="127.86218"
       sodipodi:rx="10.5"
       sodipodi:ry="10.5"
       d="m 604.5,127.86218 c 0,5.79899 -4.70101,10.5 -10.5,10.5 -5.79899,0 -10.5,-4.70101 -10.5,-10.5 0,-5.79899 4.70101,-10.5 10.5,-10.5 5.79899,0 10.5,4.70101 10.5,10.5 z"
       transform="translate(-343.64495,807.63956)" />
  </g>
</svg>
