<?xml version="1.0" encoding="UTF-8" standalone="no"?>
<!-- Created with Inkscape (http://www.inkscape.org/) -->

<svg
   xmlns:dc="http://purl.org/dc/elements/1.1/"
   xmlns:cc="http://creativecommons.org/ns#"
   xmlns:rdf="http://www.w3.org/1999/02/22-rdf-syntax-ns#"
   xmlns:svg="http://www.w3.org/2000/svg"
   xmlns="http://www.w3.org/2000/svg"
   xmlns:sodipodi="http://sodipodi.sourceforge.net/DTD/sodipodi-0.dtd"
   xmlns:inkscape="http://www.inkscape.org/namespaces/inkscape"
   width="744.09448"
   height="740"
   id="svg2"
   version="1.1"
   inkscape:version="0.48.4 r9939"
   sodipodi:docname="marketplace.svg">
  <defs
     id="defs4" />
  <sodipodi:namedview
     id="base"
     pagecolor="#ffffff"
     bordercolor="#666666"
     borderopacity="1.0"
     inkscape:pageopacity="0.0"
     inkscape:pageshadow="2"
     inkscape:zoom="0.7"
     inkscape:cx="391.32127"
     inkscape:cy="184.73438"
     inkscape:document-units="px"
     inkscape:current-layer="layer1"
     showgrid="false"
     inkscape:window-width="1600"
     inkscape:window-height="841"
     inkscape:window-x="0"
     inkscape:window-y="27"
     inkscape:window-maximized="1" />
  <metadata
     id="metadata7">
    <rdf:RDF>
      <cc:Work
         rdf:about="">
        <dc:format>image/svg+xml</dc:format>
        <dc:type
           rdf:resource="http://purl.org/dc/dcmitype/StillImage" />
        <dc:title></dc:title>
      </cc:Work>
    </rdf:RDF>
  </metadata>
  <g
     inkscape:label="Layer 1"
     inkscape:groupmode="layer"
     id="layer1"
     transform="translate(0,-312.36218)">
    <path
       style="fill:#000000;fill-opacity:0.21176471"
       d="m 16.915212,1033.9514 c 0.101152,-1.8366 2.80705,-65.42482 6.013094,-141.3069 L 28.75744,754.67709 22.927136,645.72991 C 19.72048,585.80895 17.005511,535.55891 16.893883,534.0631 l -0.202961,-2.71966 54.114451,-0.12265 54.114457,-0.12266 4.53603,-0.90366 c 25.8216,-5.14405 44.90515,-19.32071 55.97243,-41.58034 4.12817,-8.30289 5.4292,-12.16629 9.33753,-27.7273 5.25123,-20.90762 8.01798,-29.35729 12.98893,-39.66824 4.03207,-8.36345 7.27115,-13.05402 12.86741,-18.63332 9.80899,-9.77936 19.75026,-14.371 37.45131,-17.29782 3.70583,-0.61276 13.84001,-0.68334 114.36814,-0.79677 94.91105,-0.10711 111.09857,-0.0413 116.01079,0.47173 26.65945,2.78422 42.76655,13.35659 53.69498,35.24422 4.91725,9.8483 7.94596,19.00693 13.25203,40.07304 4.62131,18.34753 7.33065,25.6301 12.95067,34.81091 10.02396,16.37504 26.64339,28.50232 45.94641,33.52728 9.98599,2.59953 5.71408,2.42976 65.06806,2.58588 43.97432,0.11564 54.1391,0.24081 54.1391,0.66663 0,0.28832 -2.64117,49.21409 -5.86928,108.72395 -3.2281,59.50987 -5.86875,110.22419 -5.86811,112.69851 0,2.47428 2.64175,67.15835 5.86912,143.74234 3.22742,76.584 5.86807,139.47133 5.86815,139.74963 9e-5,0.4045 -71.94695,0.506 -358.38606,0.506 l -358.386188,0 z M 377.15415,968.68639 c 6.00835,-1.78431 15.81435,-11.69493 22.63607,-22.87761 6.02233,-9.87222 10.2175,-21.84737 11.51873,-32.88029 0.99316,-8.42059 0.0284,-22.31998 -2.19899,-31.678 l -0.86745,-3.64467 -9.85403,-0.10852 c -9.25869,-0.10196 -9.84174,-0.0653 -9.65073,0.60716 2.16107,7.60785 2.96833,13.5006 2.55213,18.62978 -0.76568,9.43676 -6.13574,19.83745 -12.8455,24.87905 -3.5008,2.6305 -5.60122,2.01866 -10.32179,-3.00648 -8.71629,-9.27886 -11.76095,-22.75935 -8.17838,-36.21089 0.46453,-1.74407 0.93759,-3.58082 1.05126,-4.08174 l 0.20675,-0.91075 -9.34285,0 c -8.72426,0 -9.36976,0.0502 -9.74944,0.75972 -0.54406,1.01661 -2.30347,9.83409 -2.91756,14.62184 -0.7322,5.70839 -0.638,18.39519 0.17127,23.07235 2.04218,11.80259 6.19083,22.33262 12.76569,32.40159 6.68741,10.24134 14.95631,18.28812 21.01413,20.44963 1.91697,0.68401 1.62727,0.68562 4.01069,-0.0222 z m -76.68936,-97.2259 25.37468,-25.37225 3.36573,3.03842 c 4.08543,3.68806 7.76268,6.57121 11.22049,8.7974 l 2.59265,1.66915 32.13652,0 32.13655,0 2.308,-1.47603 c 3.66089,-2.34119 8.16458,-5.88514 11.67247,-9.18514 l 3.23971,-3.04768 25.4718,25.47421 25.47179,25.4742 18.11504,0 18.11502,0 0,-68.1027 0,-68.10278 -26.12599,-26.1283 -26.12603,-26.12835 -1.16329,-5.28859 c -8.86453,-40.2999 -27.16866,-84.63884 -47.59741,-115.2973 -12.3894,-18.59348 -23.31072,-29.4047 -32.31578,-31.9901 -5.81548,-1.66966 -11.99146,1.17827 -20.64585,9.52043 -25.28474,24.37253 -53.93251,84.26721 -65.44116,136.81947 l -1.28533,5.86928 -26.05977,26.10937 -26.05978,26.1093 0,68.30517 0,68.3051 18.1126,0 18.11265,0 z m 43.64235,-186.3939 c 0,-0.63035 4.06013,-11.38308 5.92754,-15.69826 8.53819,-19.73001 19.16693,-34.06531 25.21863,-34.01325 3.35075,0.0287 8.53749,4.70846 13.46728,12.1505 6.32312,9.54552 11.26996,19.75245 16.14952,33.32182 1.54523,4.29712 1.56025,4.39124 0.66614,4.17379 -1.49651,-0.36398 -9.0782,-1.42078 -14.07009,-1.9612 -2.589,-0.28031 -9.59523,-0.49981 -15.78634,-0.4946 -11.39603,0.01 -18.0658,0.53079 -27.38759,2.14019 -2.30181,0.39737 -4.18509,0.56883 -4.18509,0.38101 z m 84.19382,-200.52328 c 11.6241,-2.73151 20.08623,-14.08505 19.29108,-25.88276 -0.60814,-9.02285 -6.07447,-17.10417 -14.23134,-21.03915 -5.65605,-2.72857 -3.71753,-2.64109 -58.37216,-2.63331 -55.06235,0.007 -52.26553,-0.12998 -58.40631,2.87813 -6.3601,3.11557 -11.37348,9.34001 -13.1492,16.32563 -0.79576,3.13059 -0.78361,8.95041 0.025,12.10108 2.27451,8.85918 9.25708,15.77481 18.41256,18.23599 3.38524,0.91001 102.56159,0.92345 106.43009,0.0146 z"
       id="path3007"
       inkscape:connector-curvature="0"
       sodipodi:nodetypes="sscsscccssssssssssssssscscscscssscscssscccscssssccccsscccsscccccccccsssssccccccccsscsscsscscssssscscc" />
  </g>
</svg>
