<?xml version="1.0" encoding="UTF-8" standalone="no"?>
<!-- Created with Inkscape (http://www.inkscape.org/) -->

<svg
   xmlns:dc="http://purl.org/dc/elements/1.1/"
   xmlns:cc="http://creativecommons.org/ns#"
   xmlns:rdf="http://www.w3.org/1999/02/22-rdf-syntax-ns#"
   xmlns:svg="http://www.w3.org/2000/svg"
   xmlns="http://www.w3.org/2000/svg"
   xmlns:sodipodi="http://sodipodi.sourceforge.net/DTD/sodipodi-0.dtd"
   xmlns:inkscape="http://www.inkscape.org/namespaces/inkscape"
   width="900"
   height="400"
   id="svg3802"
   version="1.1"
   inkscape:version="0.48.4 r9939"
   sodipodi:docname="New document 6">
  <defs
     id="defs3804" />
  <sodipodi:namedview
     id="base"
     pagecolor="#ffffff"
     bordercolor="#666666"
     borderopacity="1.0"
     inkscape:pageopacity="0.0"
     inkscape:pageshadow="2"
     inkscape:zoom="0.7"
     inkscape:cx="460.55898"
     inkscape:cy="143.08793"
     inkscape:document-units="px"
     inkscape:current-layer="layer1"
     showgrid="false"
     inkscape:window-width="1600"
     inkscape:window-height="841"
     inkscape:window-x="0"
     inkscape:window-y="27"
     inkscape:window-maximized="1" />
  <metadata
     id="metadata3807">
    <rdf:RDF>
      <cc:Work
         rdf:about="">
        <dc:format>image/svg+xml</dc:format>
        <dc:type
           rdf:resource="http://purl.org/dc/dcmitype/StillImage" />
        <dc:title></dc:title>
      </cc:Work>
    </rdf:RDF>
  </metadata>
  <g
     inkscape:label="Layer 1"
     inkscape:groupmode="layer"
     id="layer1"
     transform="translate(0,-652.36218)">
    <path
       style="fill:#000000;fill-opacity:0.21176471"
       d="m 5.0409682,881.10691 0,-166 219.5000118,0 219.5,0 0,166 0,166.00019 -219.5,0 -219.5000118,0 0,-166.00019 z m 367.9178718,115.25 C 362.24865,985.49441 337.32911,960.05849 317.5821,939.83264 L 281.67844,903.05837 268.10971,916.464 c -17.76948,17.55589 -25.90253,21.64291 -43.06873,21.64291 -17.01129,0 -24.95809,-4.03141 -43.33569,-21.98416 l -13.8357,-13.51584 -15.60947,16 c -8.58521,8.8 -33.57633,34.3375 -55.535833,56.75 l -39.92635,40.75019 167.817003,0 167.81699,0 -19.47309,-19.75019 z m -285.894933,-55.25 c 27.643743,-28.325 52.266723,-53.58548 54.717743,-56.1344 l 4.45642,-4.63439 -54.708743,-55.36561 c -30.08981,-30.45108 -55.10915,-55.5156 -55.59855,-55.69893 -0.51644,-0.19347 -0.88981,46.73234 -0.88981,111.83333 0,64.24467 0.37632,112.02425 0.88081,111.83333 0.48445,-0.18333 23.49841,-23.50833 51.14213,-51.83333 z m 326.977073,-59.24659 0,-111.24659 -55.00085,54.99403 c -30.25047,30.24672 -54.88104,55.35349 -54.73459,55.79282 0.41451,1.24353 108.14028,111.61742 108.98544,111.66453 0.4125,0.023 0.75,-50.01917 0.75,-111.20479 z m -179,23.18496 c 1.925,-1.00207 38.52455,-37.17315 81.33233,-80.38016 l 77.83232,-78.55821 -168.70381,0 -168.703823,0 74.499623,75.25 c 84.53754,85.38905 83.57273,84.44753 87.40697,85.29674 1.56001,0.34551 3.28639,0.78846 3.83639,0.98432 1.92674,0.68616 9.03261,-0.78771 12.5,-2.59269 z"
       id="path3821"
       inkscape:connector-curvature="0" />
    <g
       id="g3847"
       transform="matrix(0.85311661,0,0,0.85311661,1144.2771,496.77416)"
       style="fill:#000000;fill-opacity:0.21176471">
      <path
         style="fill:#000000;fill-opacity:0.21176471;stroke:none"
         d="M 471.3125 23.5 L 470 24.1875 L 470 23.84375 L 412.71875 23.84375 L 412.71875 50.65625 L 455.40625 50.65625 L 567.40625 261.5 L 581.625 288.3125 L 601.84375 326.375 C 593.02537 332.92698 587.3125 343.4199 587.3125 355.25 C 587.3125 375.10617 603.42508 391.1875 623.28125 391.1875 C 640.16838 391.1875 654.32812 379.57134 658.1875 363.875 L 744.34375 363.875 C 748.20313 379.57134 762.36287 391.1875 779.25 391.1875 C 799.10617 391.1875 815.21875 375.10617 815.21875 355.25 C 815.21875 335.39383 799.10617 319.3125 779.25 319.3125 C 766.0271 319.3125 754.49502 326.42922 748.25 337.0625 L 654.28125 337.0625 C 648.90052 327.90084 639.59138 321.36103 628.65625 319.71875 L 612 288.3125 L 772.375 288.3125 L 802.90625 288 L 896.625 111.53125 L 867.0625 110.0625 L 517.3125 110.0625 L 471.3125 23.5 z M 531.53125 136.875 L 852.8125 136.875 L 786.625 261.5 L 597.71875 261.5 L 531.53125 136.875 z "
         transform="matrix(1.1721727,0,0,1.1721727,-1341.2904,182.37603)"
         id="rect3827" />
    </g>
  </g>
</svg>
