<?xml version="1.0" encoding="UTF-8" standalone="no"?>
<!-- Created with Inkscape (http://www.inkscape.org/) -->

<svg
   xmlns:dc="http://purl.org/dc/elements/1.1/"
   xmlns:cc="http://creativecommons.org/ns#"
   xmlns:rdf="http://www.w3.org/1999/02/22-rdf-syntax-ns#"
   xmlns:svg="http://www.w3.org/2000/svg"
   xmlns="http://www.w3.org/2000/svg"
   xmlns:sodipodi="http://sodipodi.sourceforge.net/DTD/sodipodi-0.dtd"
   xmlns:inkscape="http://www.inkscape.org/namespaces/inkscape"
   width="350"
   height="350"
   id="svg5089"
   version="1.1"
   inkscape:version="0.48.4 r9939"
   sodipodi:docname="New document 16">
  <defs
     id="defs5091" />
  <sodipodi:namedview
     id="base"
     pagecolor="#ffffff"
     bordercolor="#666666"
     borderopacity="1.0"
     inkscape:pageopacity="0.0"
     inkscape:pageshadow="2"
     inkscape:zoom="0.7"
     inkscape:cx="390.23515"
     inkscape:cy="362.72691"
     inkscape:document-units="px"
     inkscape:current-layer="layer1"
     showgrid="false"
     inkscape:window-width="1600"
     inkscape:window-height="841"
     inkscape:window-x="0"
     inkscape:window-y="27"
     inkscape:window-maximized="1" />
  <metadata
     id="metadata5094">
    <rdf:RDF>
      <cc:Work
         rdf:about="">
        <dc:format>image/svg+xml</dc:format>
        <dc:type
           rdf:resource="http://purl.org/dc/dcmitype/StillImage" />
        <dc:title></dc:title>
      </cc:Work>
    </rdf:RDF>
  </metadata>
  <g
     inkscape:label="Layer 1"
     inkscape:groupmode="layer"
     id="layer1"
     transform="translate(0,-702.36218)">
    <path
       style="fill:#000000;fill-opacity:0.21176471;stroke:none"
       d="m 151.38142,717.40699 -11.01013,1.92878 -4.17902,17.84124 0.32146,9.16171 2.00915,7.23293 -17.76087,6.42928 -3.13427,-6.83111 -5.62561,-7.15256 -14.706972,-11.01013 -9.643897,5.62561 2.16987,18.1627 3.37537,8.51878 4.420127,6.02745 -14.546227,12.21562 -5.22379,-5.38452 -7.71512,-4.82195 -17.60014,-5.30415 -7.15257,8.59915 8.19733,16.39464 6.10781,6.75074 6.18817,4.2594 -9.40281,16.39464 -6.75074,-3.295 -9.00098,-1.92878 -18.24306,1.12512 -3.85756,10.44754 13.34074,12.61745 8.11695,4.25939 7.23294,1.84842 -3.29501,18.64492 -7.47403,-0.72329 -9.00098,1.20548 -16.87684,7.3133 0,11.17086 16.87684,7.23294 9.00098,1.28585 7.47403,-0.72329 3.29501,18.64489 -7.23294,1.76805 -8.11695,4.33976 -13.34074,12.53708 3.85756,10.52794 18.24306,1.04475 9.00098,-1.84841 6.75074,-3.29501 9.40281,16.39465 -6.18817,4.17903 -6.10781,6.8311 -8.19733,16.39465 7.15257,8.51878 17.60014,-5.22378 7.71512,-4.82195 5.22379,-5.38452 14.546227,12.13525 -4.420127,6.10781 -3.37537,8.43838 -2.16987,18.2432 9.643897,5.5452 14.706972,-10.9297 5.62561,-7.233 3.13427,-6.83117 17.76087,6.50977 -2.00915,7.2329 -0.32146,9.0814 4.17902,17.8412 11.01013,1.9288 10.04574,-15.2696 2.89318,-8.6795 0.48219,-7.474 18.96636,0 0.56256,7.474 2.81281,8.6795 10.04574,15.2696 11.01013,-1.9288 4.25939,-17.8412 -0.32146,-9.0814 -2.08952,-7.2329 17.84123,-6.50977 3.05391,6.83117 5.62561,7.233 14.70697,10.9297 9.6439,-5.5452 -2.08951,-18.2432 -3.45573,-8.43838 -4.33976,-6.10781 14.46586,-12.13525 5.22379,5.38452 7.79549,4.82195 17.51977,5.22378 7.15257,-8.51878 -8.19733,-16.39465 -6.10781,-6.8311 -6.18817,-4.17903 9.48318,-16.39465 6.75073,3.29501 8.92062,1.84841 18.32343,-1.04475 3.77719,-10.52794 -13.34074,-12.53708 -8.03659,-4.33976 -7.3133,-1.76805 3.29501,-18.64489 7.47403,0.72329 9.08134,-1.28585 16.79648,-7.23294 0,-11.17086 -16.79648,-7.3133 -9.08134,-1.20548 -7.47403,0.72329 -3.29501,-18.64492 7.3133,-1.84842 8.03659,-4.25939 13.34074,-12.61745 -3.77719,-10.44754 -18.32343,-1.12512 -8.92062,1.92878 -6.75073,3.295 -9.48318,-16.39464 6.18817,-4.2594 6.10781,-6.75074 8.19733,-16.39464 -7.15257,-8.59915 -17.51977,5.30415 -7.79549,4.82195 -5.22379,5.38452 -14.46586,-12.21562 4.33976,-6.02745 3.45573,-8.51878 2.08951,-18.1627 -9.6439,-5.62561 -14.70697,11.01013 -5.62561,7.15256 -3.05391,6.83111 -17.84123,-6.42928 2.08952,-7.23293 0.32146,-9.16171 -4.25939,-17.84124 -11.01013,-1.92878 -10.04574,15.34989 -2.81281,8.67952 -0.56256,7.47403 -18.96636,0 -0.48219,-7.47403 -2.89318,-8.67952 -10.04574,-15.34989 z m 24.19014,72.49006 c 50.93312,0 92.26007,41.32693 92.26007,92.26007 0,50.93311 -41.32695,92.1797 -92.26007,92.1797 -50.93311,0 -92.179699,-41.24659 -92.179699,-92.1797 0,-50.93314 41.246589,-92.26007 92.179699,-92.26007 z"
       id="path4496-1-1"
       inkscape:connector-curvature="0" />
  </g>
</svg>
